<svg xmlns="http://www.w3.org/2000/svg" xmlns:xlink="http://www.w3.org/1999/xlink" width="2160" zoomAndPan="magnify" viewBox="0 0 1620 434.999989" height="580" preserveAspectRatio="xMidYMid meet" version="1.0"><defs><g/><clipPath id="8ca01c5ea7"><path d="M 1377 107 L 1513 107 L 1513 322.296875 L 1377 322.296875 Z M 1377 107 " clip-rule="nonzero"/></clipPath><clipPath id="50da618b0f"><path d="M 1546.121094 139 L 1597.777344 139 L 1597.777344 221.59375 L 1546.121094 221.59375 Z M 1546.121094 139 " clip-rule="nonzero"/></clipPath><clipPath id="cb621077ff"><path d="M 1593 141 L 1597.777344 141 L 1597.777344 219.46875 L 1593 219.46875 Z M 1593 141 " clip-rule="nonzero"/></clipPath><clipPath id="3970001567"><path d="M 1572 139 L 1597.777344 139 L 1597.777344 221.59375 L 1572 221.59375 Z M 1572 139 " clip-rule="nonzero"/></clipPath></defs><g clip-path="url(#8ca01c5ea7)"><path fill="#358c9c" d="M 1425.042969 234.753906 L 1385.496094 274.414062 C 1374.570312 285.371094 1374.570312 303.128906 1385.496094 314.085938 C 1396.414062 325.03125 1414.121094 325.03125 1425.042969 314.085938 L 1504.148438 234.753906 C 1515.074219 223.796875 1515.074219 206.042969 1504.148438 195.085938 L 1425.042969 115.757812 C 1414.121094 104.800781 1396.414062 104.800781 1385.496094 115.757812 C 1374.570312 126.710938 1374.570312 144.46875 1385.496094 155.425781 L 1425.042969 195.085938 C 1435.96875 206.042969 1435.96875 223.796875 1425.042969 234.753906 " fill-opacity="1" fill-rule="nonzero"/></g><path fill="#358c9c" d="M 1384.3125 222.457031 L 1369.269531 237.53125 C 1365.128906 241.695312 1365.128906 248.449219 1369.269531 252.609375 C 1373.421875 256.773438 1380.164062 256.773438 1384.3125 252.609375 L 1414.375 222.457031 C 1418.527344 218.292969 1418.527344 211.539062 1414.375 207.378906 L 1384.3125 177.222656 C 1380.164062 173.058594 1373.421875 173.058594 1369.269531 177.222656 C 1365.128906 181.382812 1365.128906 188.136719 1369.269531 192.300781 L 1384.3125 207.378906 C 1388.457031 211.539062 1388.457031 218.292969 1384.3125 222.457031 " fill-opacity="1" fill-rule="nonzero"/><path fill="#2c7380" d="M 1376.796875 255.730469 C 1376.070312 255.730469 1375.332031 255.65625 1374.613281 255.503906 C 1376.574219 255.089844 1378.433594 254.136719 1379.957031 252.609375 L 1410.027344 222.457031 C 1414.167969 218.292969 1414.167969 211.539062 1410.027344 207.378906 L 1379.957031 177.222656 C 1378.433594 175.703125 1376.574219 174.742188 1374.613281 174.335938 C 1375.332031 174.1875 1376.070312 174.109375 1376.796875 174.109375 C 1379.519531 174.109375 1382.238281 175.148438 1384.3125 177.222656 L 1414.375 207.378906 C 1416.453125 209.457031 1417.492188 212.1875 1417.492188 214.917969 C 1417.492188 217.644531 1416.453125 220.375 1414.375 222.457031 L 1384.3125 252.609375 C 1382.238281 254.691406 1379.519531 255.730469 1376.796875 255.730469 " fill-opacity="1" fill-rule="nonzero"/><path fill="#2c7380" d="M 1490.601562 248.339844 L 1451.195312 208.820312 C 1440.277344 197.863281 1440.277344 180.105469 1451.195312 169.152344 L 1464.742188 155.566406 L 1504.148438 195.085938 C 1509.613281 200.558594 1512.34375 207.742188 1512.34375 214.917969 C 1512.34375 222.097656 1509.613281 229.273438 1504.148438 234.753906 L 1490.601562 248.339844 " fill-opacity="1" fill-rule="nonzero"/><path fill="#f68716" d="M 1538.917969 160.507812 L 1578.472656 120.839844 C 1589.398438 109.894531 1589.398438 92.128906 1578.472656 81.179688 C 1567.546875 70.222656 1549.839844 70.222656 1538.917969 81.179688 L 1459.8125 160.507812 C 1448.894531 171.457031 1448.894531 189.222656 1459.8125 200.167969 L 1538.917969 279.5 C 1549.839844 290.457031 1567.546875 290.457031 1578.472656 279.5 C 1589.398438 268.550781 1589.398438 250.785156 1578.472656 239.839844 L 1538.917969 200.167969 C 1528 189.222656 1528 171.457031 1538.917969 160.507812 " fill-opacity="1" fill-rule="nonzero"/><g clip-path="url(#50da618b0f)"><path fill="#f68716" d="M 1579.65625 172.800781 L 1594.691406 157.722656 C 1598.839844 153.558594 1598.839844 146.808594 1594.691406 142.644531 C 1590.539062 138.480469 1583.804688 138.480469 1579.65625 142.644531 L 1549.585938 172.800781 C 1545.433594 176.964844 1545.433594 183.714844 1549.585938 187.878906 L 1579.65625 218.035156 C 1583.804688 222.199219 1590.539062 222.199219 1594.691406 218.035156 C 1598.839844 213.871094 1598.839844 207.121094 1594.691406 202.957031 L 1579.65625 187.878906 C 1575.503906 183.714844 1575.503906 176.964844 1579.65625 172.800781 " fill-opacity="1" fill-rule="nonzero"/></g><g clip-path="url(#cb621077ff)"><path fill="#d3d2d2" d="M 1593.449219 219.105469 C 1593.878906 218.78125 1594.300781 218.425781 1594.691406 218.035156 C 1596.765625 215.953125 1597.800781 213.222656 1597.800781 210.496094 C 1597.800781 213.222656 1596.765625 215.953125 1594.691406 218.035156 C 1594.300781 218.425781 1593.878906 218.78125 1593.449219 219.105469 M 1594.691406 142.644531 C 1594.328125 142.28125 1593.9375 141.941406 1593.53125 141.632812 C 1593.9375 141.941406 1594.328125 142.28125 1594.691406 142.644531 " fill-opacity="1" fill-rule="nonzero"/></g><g clip-path="url(#3970001567)"><path fill="#cb6e11" d="M 1587.179688 221.152344 C 1586.445312 221.152344 1585.71875 221.078125 1584.996094 220.921875 C 1586.949219 220.515625 1588.808594 219.550781 1590.332031 218.035156 C 1594.484375 213.871094 1594.484375 207.121094 1590.332031 202.957031 L 1575.296875 187.878906 C 1571.144531 183.714844 1571.144531 176.964844 1575.296875 172.800781 L 1590.332031 157.722656 C 1594.484375 153.558594 1594.484375 146.808594 1590.332031 142.644531 C 1588.808594 141.117188 1586.949219 140.164062 1584.996094 139.75 C 1585.71875 139.601562 1586.445312 139.527344 1587.179688 139.527344 C 1589.414062 139.527344 1591.65625 140.230469 1593.53125 141.632812 C 1593.9375 141.941406 1594.328125 142.28125 1594.691406 142.644531 C 1596.765625 144.726562 1597.800781 147.453125 1597.800781 150.183594 C 1597.800781 152.914062 1596.765625 155.640625 1594.691406 157.722656 L 1579.65625 172.800781 C 1577.578125 174.882812 1576.539062 177.609375 1576.539062 180.339844 C 1576.539062 183.066406 1577.578125 185.796875 1579.65625 187.878906 L 1594.691406 202.957031 C 1596.765625 205.039062 1597.800781 207.765625 1597.800781 210.496094 C 1597.800781 213.222656 1596.765625 215.953125 1594.691406 218.035156 C 1594.300781 218.425781 1593.878906 218.78125 1593.449219 219.105469 C 1591.589844 220.472656 1589.378906 221.152344 1587.179688 221.152344 " fill-opacity="1" fill-rule="nonzero"/></g><g fill="#373636" fill-opacity="1"><g transform="translate(39.74557, 271.038949)"><g><path d="M 119.890625 -149.0625 L 119.890625 -119.03125 L 78.359375 -119.03125 L 78.359375 0 L 46 0 L 46 -119.03125 L 4.6875 -119.03125 L 4.6875 -149.0625 Z M 119.890625 -149.0625 "/></g></g></g><g fill="#373636" fill-opacity="1"><g transform="translate(146.628212, 271.038949)"><g><path d="M 73.671875 -115.625 L 83.890625 -115.625 L 83.890625 -86.234375 L 70.484375 -86.234375 C 61.679688 -86.234375 55.398438 -84.175781 51.640625 -80.0625 C 47.878906 -75.945312 46 -69.203125 46 -59.828125 L 46 0 L 14.90625 0 L 14.90625 -114.984375 L 34.921875 -114.984375 L 40.453125 -100.9375 C 48.265625 -110.726562 59.335938 -115.625 73.671875 -115.625 Z M 73.671875 -115.625 "/></g></g></g><g fill="#373636" fill-opacity="1"><g transform="translate(215.824498, 271.038949)"><g><path d="M 67.5 3.1875 C 56.707031 3.1875 47.226562 1.023438 39.0625 -3.296875 C 30.90625 -7.628906 24.59375 -13.660156 20.125 -21.390625 C 15.65625 -29.128906 13.421875 -38.179688 13.421875 -48.546875 L 13.421875 -114.984375 L 44.5 -114.984375 L 44.5 -52.171875 C 44.5 -43.929688 46.519531 -37.503906 50.5625 -32.890625 C 54.613281 -28.285156 60.257812 -25.984375 67.5 -25.984375 C 74.738281 -25.984375 80.34375 -28.320312 84.3125 -33 C 88.289062 -37.6875 90.28125 -44.078125 90.28125 -52.171875 L 90.28125 -114.984375 L 121.375 -114.984375 L 121.375 -48.546875 C 121.375 -38.179688 119.132812 -29.128906 114.65625 -21.390625 C 110.1875 -13.660156 103.90625 -7.628906 95.8125 -3.296875 C 87.726562 1.023438 78.289062 3.1875 67.5 3.1875 Z M 67.5 3.1875 "/></g></g></g><g fill="#373636" fill-opacity="1"><g transform="translate(333.140083, 271.038949)"><g><path d="M 55.796875 3.1875 C 46.140625 3.1875 37.691406 1.484375 30.453125 -1.921875 C 23.210938 -5.328125 17.566406 -10.113281 13.515625 -16.28125 C 9.472656 -22.457031 7.453125 -29.664062 7.453125 -37.90625 L 37.6875 -37.90625 C 37.832031 -32.789062 39.675781 -28.957031 43.21875 -26.40625 C 46.769531 -23.851562 51.316406 -22.578125 56.859375 -22.578125 C 61.253906 -22.578125 65.082031 -23.535156 68.34375 -25.453125 C 71.613281 -27.367188 73.25 -30.238281 73.25 -34.0625 C 73.25 -38.039062 71.082031 -40.847656 66.75 -42.484375 C 62.425781 -44.117188 57.210938 -45.429688 51.109375 -46.421875 C 46.566406 -47.128906 41.84375 -48.117188 36.9375 -49.390625 C 32.039062 -50.671875 27.535156 -52.519531 23.421875 -54.9375 C 19.304688 -57.351562 15.9375 -60.6875 13.3125 -64.9375 C 10.6875 -69.195312 9.375 -74.738281 9.375 -81.5625 C 9.375 -88.800781 11.320312 -95.1875 15.21875 -100.71875 C 19.125 -106.257812 24.519531 -110.554688 31.40625 -113.609375 C 38.289062 -116.660156 46.421875 -118.1875 55.796875 -118.1875 C 65.015625 -118.1875 73.066406 -116.585938 79.953125 -113.390625 C 86.835938 -110.191406 92.195312 -105.71875 96.03125 -99.96875 C 99.863281 -94.21875 101.78125 -87.515625 101.78125 -79.859375 L 72.1875 -79.859375 C 72.1875 -84.398438 70.660156 -87.804688 67.609375 -90.078125 C 64.554688 -92.347656 60.332031 -93.484375 54.9375 -93.484375 C 50.113281 -93.484375 46.351562 -92.453125 43.65625 -90.390625 C 40.957031 -88.328125 39.609375 -85.664062 39.609375 -82.40625 C 39.609375 -78.570312 41.734375 -75.945312 45.984375 -74.53125 C 50.242188 -73.113281 55.359375 -71.90625 61.328125 -70.90625 C 66.015625 -70.050781 70.84375 -69.019531 75.8125 -67.8125 C 80.78125 -66.613281 85.390625 -64.804688 89.640625 -62.390625 C 93.898438 -59.972656 97.34375 -56.632812 99.96875 -52.375 C 102.59375 -48.125 103.90625 -42.519531 103.90625 -35.5625 C 103.90625 -27.75 101.914062 -20.929688 97.9375 -15.109375 C 93.96875 -9.296875 88.363281 -4.789062 81.125 -1.59375 C 73.882812 1.59375 65.441406 3.1875 55.796875 3.1875 Z M 55.796875 3.1875 "/></g></g></g><g fill="#373636" fill-opacity="1"><g transform="translate(427.460619, 271.038949)"><g><path d="M 71.125 -27.6875 L 85.171875 -27.6875 L 85.171875 0 L 63.25 0 C 50.613281 0 40.640625 -3.65625 33.328125 -10.96875 C 26.015625 -18.28125 22.359375 -28.320312 22.359375 -41.09375 L 22.359375 -90.078125 L 1.484375 -90.078125 L 1.484375 -96.671875 L 47.0625 -145.015625 L 52.8125 -145.015625 L 52.8125 -114.984375 L 84.53125 -114.984375 L 84.53125 -90.078125 L 53.453125 -90.078125 L 53.453125 -45.140625 C 53.453125 -39.609375 54.976562 -35.316406 58.03125 -32.265625 C 61.082031 -29.210938 65.445312 -27.6875 71.125 -27.6875 Z M 71.125 -27.6875 "/></g></g></g><g fill="#373636" fill-opacity="1"><g transform="translate(501.554044, 271.038949)"><g/></g></g><g fill="#373636" fill-opacity="1"><g transform="translate(534.980282, 271.038949)"><g><path d="M 119.890625 -149.0625 L 119.890625 -119.03125 L 78.359375 -119.03125 L 78.359375 0 L 46 0 L 46 -119.03125 L 4.6875 -119.03125 L 4.6875 -149.0625 Z M 119.890625 -149.0625 "/></g></g></g><g fill="#373636" fill-opacity="1"><g transform="translate(641.862937, 271.038949)"><g><path d="M 126.484375 -57.921875 C 126.484375 -54.941406 126.269531 -51.890625 125.84375 -48.765625 L 38.96875 -48.765625 C 40.25 -40.953125 43.375 -34.953125 48.34375 -30.765625 C 53.3125 -26.578125 59.554688 -24.484375 67.078125 -24.484375 C 72.472656 -24.484375 77.296875 -25.65625 81.546875 -28 C 85.804688 -30.34375 89.070312 -33.570312 91.34375 -37.6875 L 124.140625 -37.6875 C 119.878906 -25.195312 112.640625 -15.257812 102.421875 -7.875 C 92.203125 -0.5 80.421875 3.1875 67.078125 3.1875 C 55.722656 3.1875 45.535156 0.523438 36.515625 -4.796875 C 27.503906 -10.117188 20.40625 -17.359375 15.21875 -26.515625 C 10.039062 -35.671875 7.453125 -46 7.453125 -57.5 C 7.453125 -68.988281 10.039062 -79.3125 15.21875 -88.46875 C 20.40625 -97.625 27.503906 -104.863281 36.515625 -110.1875 C 45.535156 -115.519531 55.722656 -118.1875 67.078125 -118.1875 C 78.859375 -118.1875 89.21875 -115.453125 98.15625 -109.984375 C 107.101562 -104.515625 114.0625 -97.238281 119.03125 -88.15625 C 124 -79.070312 126.484375 -68.992188 126.484375 -57.921875 Z M 67.078125 -91.78125 C 60.117188 -91.78125 54.257812 -89.863281 49.5 -86.03125 C 44.75 -82.195312 41.519531 -76.875 39.8125 -70.0625 L 95.390625 -70.0625 C 90.847656 -84.539062 81.410156 -91.78125 67.078125 -91.78125 Z M 67.078125 -91.78125 "/></g></g></g><g fill="#373636" fill-opacity="1"><g transform="translate(758.113962, 271.038949)"><g><path d="M 68.359375 3.1875 C 56.859375 3.1875 46.492188 0.492188 37.265625 -4.890625 C 28.035156 -10.285156 20.757812 -17.597656 15.4375 -26.828125 C 10.113281 -36.054688 7.453125 -46.421875 7.453125 -57.921875 C 7.453125 -69.421875 10.113281 -79.710938 15.4375 -88.796875 C 20.757812 -97.878906 28.035156 -105.046875 37.265625 -110.296875 C 46.492188 -115.554688 56.925781 -118.1875 68.5625 -118.1875 C 78.5 -118.1875 87.546875 -116.234375 95.703125 -112.328125 C 103.867188 -108.421875 110.6875 -102.914062 116.15625 -95.8125 C 121.625 -88.71875 125.28125 -80.488281 127.125 -71.125 L 96.25 -71.125 C 93.695312 -76.800781 89.96875 -81.203125 85.0625 -84.328125 C 80.164062 -87.453125 74.597656 -89.015625 68.359375 -89.015625 C 62.816406 -89.015625 57.8125 -87.628906 53.34375 -84.859375 C 48.875 -82.085938 45.359375 -78.359375 42.796875 -73.671875 C 40.242188 -68.992188 38.96875 -63.671875 38.96875 -57.703125 C 38.96875 -51.742188 40.242188 -46.382812 42.796875 -41.625 C 45.359375 -36.875 48.875 -33.078125 53.34375 -30.234375 C 57.8125 -27.398438 62.816406 -25.984375 68.359375 -25.984375 C 74.742188 -25.984375 80.3125 -27.648438 85.0625 -30.984375 C 89.820312 -34.316406 93.550781 -39.109375 96.25 -45.359375 L 127.546875 -45.359375 C 125.703125 -35.703125 122.007812 -27.21875 116.46875 -19.90625 C 110.9375 -12.59375 104.050781 -6.914062 95.8125 -2.875 C 87.582031 1.164062 78.429688 3.1875 68.359375 3.1875 Z M 68.359375 3.1875 "/></g></g></g><g fill="#373636" fill-opacity="1"><g transform="translate(873.72624, 271.038949)"><g><path d="M 80.703125 -117.75 C 93.765625 -117.75 104.054688 -113.421875 111.578125 -104.765625 C 119.097656 -96.109375 122.859375 -84.46875 122.859375 -69.84375 L 122.859375 0 L 91.78125 0 L 91.78125 -64.734375 C 91.78125 -73.253906 90.21875 -79.675781 87.09375 -84 C 83.96875 -88.332031 78.859375 -90.5 71.765625 -90.5 C 64.097656 -90.5 57.882812 -87.835938 53.125 -82.515625 C 48.375 -77.191406 46 -69.84375 46 -60.46875 L 46 0 L 14.90625 0 L 14.90625 -156.515625 L 46 -156.515625 L 46 -104.34375 C 50.394531 -108.457031 55.570312 -111.71875 61.53125 -114.125 C 67.5 -116.539062 73.890625 -117.75 80.703125 -117.75 Z M 80.703125 -117.75 "/></g></g></g><g fill="#373636" fill-opacity="1"><g transform="translate(992.745181, 271.038949)"><g><path d="M 14.90625 -130.3125 L 14.90625 -159.28125 L 46 -159.28125 L 46 -130.3125 Z M 14.90625 0 L 14.90625 -114.984375 L 46 -114.984375 L 46 0 Z M 14.90625 0 "/></g></g></g><g fill="#373636" fill-opacity="1"><g transform="translate(1036.178445, 271.038949)"><g><path d="M 80.484375 -117.75 C 93.546875 -117.75 103.875 -113.382812 111.46875 -104.65625 C 119.0625 -95.925781 122.859375 -84.25 122.859375 -69.625 L 122.859375 0 L 91.78125 0 L 91.78125 -64.734375 C 91.78125 -81.910156 85.109375 -90.5 71.765625 -90.5 C 63.804688 -90.5 57.519531 -87.800781 52.90625 -82.40625 C 48.300781 -77.007812 46 -69.695312 46 -60.46875 L 46 0 L 14.90625 0 L 14.90625 -114.984375 L 36.203125 -114.984375 L 42.375 -100.71875 C 46.632812 -105.96875 52.097656 -110.117188 58.765625 -113.171875 C 65.441406 -116.222656 72.679688 -117.75 80.484375 -117.75 Z M 80.484375 -117.75 "/></g></g></g><g fill="#373636" fill-opacity="1"><g transform="translate(1155.197386, 271.038949)"><g><path d="M 107.75 -114.984375 L 127.96875 -114.984375 L 127.96875 -13.421875 C 127.96875 -1.347656 125.585938 9.015625 120.828125 17.671875 C 116.078125 26.328125 109.300781 33 100.5 37.6875 C 91.695312 42.375 81.265625 44.71875 69.203125 44.71875 C 53.585938 44.71875 40.5625 40.953125 30.125 33.421875 C 19.695312 25.898438 13.203125 15.613281 10.640625 2.5625 L 41.515625 2.5625 C 43.222656 7.664062 46.738281 11.53125 52.0625 14.15625 C 57.382812 16.78125 62.882812 18.09375 68.5625 18.09375 C 76.507812 18.09375 83.285156 15.710938 88.890625 10.953125 C 94.503906 6.203125 97.3125 -0.425781 97.3125 -8.9375 L 97.3125 -13.203125 C 92.769531 -9.929688 87.726562 -7.410156 82.1875 -5.640625 C 76.65625 -3.867188 70.765625 -2.984375 64.515625 -2.984375 C 53.867188 -2.984375 44.21875 -5.535156 35.5625 -10.640625 C 26.90625 -15.753906 20.054688 -22.640625 15.015625 -31.296875 C 9.972656 -39.960938 7.453125 -49.6875 7.453125 -60.46875 C 7.453125 -71.257812 9.972656 -81.019531 15.015625 -89.75 C 20.054688 -98.476562 26.90625 -105.398438 35.5625 -110.515625 C 44.21875 -115.628906 53.867188 -118.1875 64.515625 -118.1875 C 72.046875 -118.1875 79.070312 -116.90625 85.59375 -114.34375 C 92.125 -111.789062 97.875 -108.171875 102.84375 -103.484375 Z M 68.140625 -30.65625 C 76.660156 -30.65625 83.6875 -33.457031 89.21875 -39.0625 C 94.757812 -44.675781 97.53125 -51.8125 97.53125 -60.46875 C 97.53125 -68.988281 94.796875 -76.050781 89.328125 -81.65625 C 83.859375 -87.269531 76.796875 -90.078125 68.140625 -90.078125 C 59.765625 -90.078125 52.804688 -87.269531 47.265625 -81.65625 C 41.734375 -76.050781 38.96875 -68.988281 38.96875 -60.46875 C 38.96875 -51.8125 41.695312 -44.675781 47.15625 -39.0625 C 52.625 -33.457031 59.617188 -30.65625 68.140625 -30.65625 Z M 68.140625 -30.65625 "/></g></g></g><g fill="#242424" fill-opacity="1"><g transform="translate(226.264053, 333.214422)"><g/></g></g><g fill="#242424" fill-opacity="1"><g transform="translate(246.060003, 333.214422)"><g><path d="M 21.3125 -5.875 L 8.578125 -5.875 L 6.15625 0 L -0.359375 0 L 11.875 -27.4375 L 18.140625 -27.4375 L 30.40625 0 L 23.75 0 Z M 19.3125 -10.703125 L 14.96875 -21.203125 L 10.625 -10.703125 Z M 19.3125 -10.703125 "/></g></g></g><g fill="#242424" fill-opacity="1"><g transform="translate(284.734556, 333.214422)"><g><path d="M 15.4375 0.46875 C 11.519531 0.46875 8.46875 -0.613281 6.28125 -2.78125 C 4.101562 -4.945312 3.015625 -8.039062 3.015625 -12.0625 L 3.015625 -27.4375 L 9.359375 -27.4375 L 9.359375 -12.3125 C 9.359375 -7.394531 11.398438 -4.9375 15.484375 -4.9375 C 17.460938 -4.9375 18.972656 -5.53125 20.015625 -6.71875 C 21.066406 -7.90625 21.59375 -9.769531 21.59375 -12.3125 L 21.59375 -27.4375 L 27.859375 -27.4375 L 27.859375 -12.0625 C 27.859375 -8.039062 26.765625 -4.945312 24.578125 -2.78125 C 22.398438 -0.613281 19.351562 0.46875 15.4375 0.46875 Z M 15.4375 0.46875 "/></g></g></g><g fill="#242424" fill-opacity="1"><g transform="translate(324.271176, 333.214422)"><g><path d="M 8.9375 -22.265625 L 0.15625 -22.265625 L 0.15625 -27.4375 L 24.0625 -27.4375 L 24.0625 -22.265625 L 15.28125 -22.265625 L 15.28125 0 L 8.9375 0 Z M 8.9375 -22.265625 "/></g></g></g><g fill="#242424" fill-opacity="1"><g transform="translate(357.146483, 333.214422)"><g><path d="M 16.53125 0.46875 C 13.6875 0.46875 11.117188 -0.144531 8.828125 -1.375 C 6.546875 -2.601562 4.757812 -4.289062 3.46875 -6.4375 C 2.175781 -8.59375 1.53125 -11.019531 1.53125 -13.71875 C 1.53125 -16.40625 2.175781 -18.828125 3.46875 -20.984375 C 4.757812 -23.140625 6.546875 -24.832031 8.828125 -26.0625 C 11.117188 -27.289062 13.6875 -27.90625 16.53125 -27.90625 C 19.382812 -27.90625 21.945312 -27.289062 24.21875 -26.0625 C 26.488281 -24.832031 28.273438 -23.140625 29.578125 -20.984375 C 30.890625 -18.828125 31.546875 -16.40625 31.546875 -13.71875 C 31.546875 -11.019531 30.890625 -8.59375 29.578125 -6.4375 C 28.273438 -4.289062 26.488281 -2.601562 24.21875 -1.375 C 21.945312 -0.144531 19.382812 0.46875 16.53125 0.46875 Z M 16.53125 -4.9375 C 18.15625 -4.9375 19.617188 -5.304688 20.921875 -6.046875 C 22.234375 -6.796875 23.257812 -7.835938 24 -9.171875 C 24.75 -10.503906 25.125 -12.019531 25.125 -13.71875 C 25.125 -15.414062 24.75 -16.929688 24 -18.265625 C 23.257812 -19.597656 22.234375 -20.632812 20.921875 -21.375 C 19.617188 -22.125 18.15625 -22.5 16.53125 -22.5 C 14.914062 -22.5 13.453125 -22.125 12.140625 -21.375 C 10.835938 -20.632812 9.8125 -19.597656 9.0625 -18.265625 C 8.320312 -16.929688 7.953125 -15.414062 7.953125 -13.71875 C 7.953125 -12.019531 8.320312 -10.503906 9.0625 -9.171875 C 9.8125 -7.835938 10.835938 -6.796875 12.140625 -6.046875 C 13.453125 -5.304688 14.914062 -4.9375 16.53125 -4.9375 Z M 16.53125 -4.9375 "/></g></g></g><g fill="#242424" fill-opacity="1"><g transform="translate(398.877382, 333.214422)"><g><path d="M 28.21875 0 L 28.171875 -16.453125 L 20.109375 -2.90625 L 17.25 -2.90625 L 9.203125 -16.109375 L 9.203125 0 L 3.25 0 L 3.25 -27.4375 L 8.5 -27.4375 L 18.765625 -10.390625 L 28.875 -27.4375 L 34.09375 -27.4375 L 34.171875 0 Z M 28.21875 0 "/></g></g></g><g fill="#242424" fill-opacity="1"><g transform="translate(444.957728, 333.214422)"><g><path d="M 21.3125 -5.875 L 8.578125 -5.875 L 6.15625 0 L -0.359375 0 L 11.875 -27.4375 L 18.140625 -27.4375 L 30.40625 0 L 23.75 0 Z M 19.3125 -10.703125 L 14.96875 -21.203125 L 10.625 -10.703125 Z M 19.3125 -10.703125 "/></g></g></g><g fill="#242424" fill-opacity="1"><g transform="translate(483.632281, 333.214422)"><g><path d="M 8.9375 -22.265625 L 0.15625 -22.265625 L 0.15625 -27.4375 L 24.0625 -27.4375 L 24.0625 -22.265625 L 15.28125 -22.265625 L 15.28125 0 L 8.9375 0 Z M 8.9375 -22.265625 "/></g></g></g><g fill="#242424" fill-opacity="1"><g transform="translate(516.507588, 333.214422)"><g><path d="M 24.484375 -5.09375 L 24.484375 0 L 3.25 0 L 3.25 -27.4375 L 23.984375 -27.4375 L 23.984375 -22.34375 L 9.5625 -22.34375 L 9.5625 -16.375 L 22.296875 -16.375 L 22.296875 -11.4375 L 9.5625 -11.4375 L 9.5625 -5.09375 Z M 24.484375 -5.09375 "/></g></g></g><g fill="#242424" fill-opacity="1"><g transform="translate(551.459688, 333.214422)"><g/></g></g><g fill="#242424" fill-opacity="1"><g transform="translate(571.208379, 333.214422)"><g><path d="M 12.265625 0.46875 C 10.097656 0.46875 8 0.175781 5.96875 -0.40625 C 3.945312 -1 2.320312 -1.765625 1.09375 -2.703125 L 3.25 -7.484375 C 4.425781 -6.617188 5.820312 -5.925781 7.4375 -5.40625 C 9.0625 -4.882812 10.6875 -4.625 12.3125 -4.625 C 14.113281 -4.625 15.441406 -4.890625 16.296875 -5.421875 C 17.160156 -5.960938 17.59375 -6.675781 17.59375 -7.5625 C 17.59375 -8.21875 17.335938 -8.757812 16.828125 -9.1875 C 16.316406 -9.625 15.660156 -9.972656 14.859375 -10.234375 C 14.066406 -10.492188 12.992188 -10.78125 11.640625 -11.09375 C 9.546875 -11.582031 7.832031 -12.078125 6.5 -12.578125 C 5.164062 -13.078125 4.019531 -13.875 3.0625 -14.96875 C 2.113281 -16.0625 1.640625 -17.523438 1.640625 -19.359375 C 1.640625 -20.953125 2.070312 -22.394531 2.9375 -23.6875 C 3.800781 -24.976562 5.097656 -26.003906 6.828125 -26.765625 C 8.566406 -27.523438 10.691406 -27.90625 13.203125 -27.90625 C 14.953125 -27.90625 16.660156 -27.691406 18.328125 -27.265625 C 20.003906 -26.847656 21.472656 -26.25 22.734375 -25.46875 L 20.765625 -20.65625 C 18.234375 -22.09375 15.703125 -22.8125 13.171875 -22.8125 C 11.390625 -22.8125 10.070312 -22.519531 9.21875 -21.9375 C 8.375 -21.363281 7.953125 -20.609375 7.953125 -19.671875 C 7.953125 -18.734375 8.441406 -18.035156 9.421875 -17.578125 C 10.398438 -17.117188 11.894531 -16.664062 13.90625 -16.21875 C 16 -15.726562 17.710938 -15.234375 19.046875 -14.734375 C 20.378906 -14.234375 21.519531 -13.445312 22.46875 -12.375 C 23.425781 -11.3125 23.90625 -9.863281 23.90625 -8.03125 C 23.90625 -6.46875 23.46875 -5.035156 22.59375 -3.734375 C 21.71875 -2.441406 20.40625 -1.414062 18.65625 -0.65625 C 16.90625 0.09375 14.773438 0.46875 12.265625 0.46875 Z M 12.265625 0.46875 "/></g></g></g><g fill="#242424" fill-opacity="1"><g transform="translate(604.867379, 333.214422)"><g><path d="M 24.484375 -5.09375 L 24.484375 0 L 3.25 0 L 3.25 -27.4375 L 23.984375 -27.4375 L 23.984375 -22.34375 L 9.5625 -22.34375 L 9.5625 -16.375 L 22.296875 -16.375 L 22.296875 -11.4375 L 9.5625 -11.4375 L 9.5625 -5.09375 Z M 24.484375 -5.09375 "/></g></g></g><g fill="#242424" fill-opacity="1"><g transform="translate(639.819478, 333.214422)"><g><path d="M 16.375 0.46875 C 13.582031 0.46875 11.054688 -0.132812 8.796875 -1.34375 C 6.535156 -2.5625 4.757812 -4.25 3.46875 -6.40625 C 2.175781 -8.5625 1.53125 -11 1.53125 -13.71875 C 1.53125 -16.4375 2.175781 -18.867188 3.46875 -21.015625 C 4.757812 -23.171875 6.535156 -24.859375 8.796875 -26.078125 C 11.054688 -27.296875 13.597656 -27.90625 16.421875 -27.90625 C 18.796875 -27.90625 20.941406 -27.484375 22.859375 -26.640625 C 24.785156 -25.804688 26.398438 -24.609375 27.703125 -23.046875 L 23.625 -19.28125 C 21.769531 -21.425781 19.472656 -22.5 16.734375 -22.5 C 15.035156 -22.5 13.519531 -22.125 12.1875 -21.375 C 10.851562 -20.632812 9.8125 -19.597656 9.0625 -18.265625 C 8.320312 -16.929688 7.953125 -15.414062 7.953125 -13.71875 C 7.953125 -12.019531 8.320312 -10.503906 9.0625 -9.171875 C 9.8125 -7.835938 10.851562 -6.796875 12.1875 -6.046875 C 13.519531 -5.304688 15.035156 -4.9375 16.734375 -4.9375 C 19.472656 -4.9375 21.769531 -6.019531 23.625 -8.1875 L 27.703125 -4.421875 C 26.398438 -2.828125 24.78125 -1.613281 22.84375 -0.78125 C 20.914062 0.0507812 18.757812 0.46875 16.375 0.46875 Z M 16.375 0.46875 "/></g></g></g><g fill="#242424" fill-opacity="1"><g transform="translate(677.200981, 333.214422)"><g><path d="M 15.4375 0.46875 C 11.519531 0.46875 8.46875 -0.613281 6.28125 -2.78125 C 4.101562 -4.945312 3.015625 -8.039062 3.015625 -12.0625 L 3.015625 -27.4375 L 9.359375 -27.4375 L 9.359375 -12.3125 C 9.359375 -7.394531 11.398438 -4.9375 15.484375 -4.9375 C 17.460938 -4.9375 18.972656 -5.53125 20.015625 -6.71875 C 21.066406 -7.90625 21.59375 -9.769531 21.59375 -12.3125 L 21.59375 -27.4375 L 27.859375 -27.4375 L 27.859375 -12.0625 C 27.859375 -8.039062 26.765625 -4.945312 24.578125 -2.78125 C 22.398438 -0.613281 19.351562 0.46875 15.4375 0.46875 Z M 15.4375 0.46875 "/></g></g></g><g fill="#242424" fill-opacity="1"><g transform="translate(716.737575, 333.214422)"><g><path d="M 20.734375 0 L 15.4375 -7.640625 L 9.59375 -7.640625 L 9.59375 0 L 3.25 0 L 3.25 -27.4375 L 15.125 -27.4375 C 17.550781 -27.4375 19.660156 -27.03125 21.453125 -26.21875 C 23.242188 -25.40625 24.625 -24.253906 25.59375 -22.765625 C 26.5625 -21.273438 27.046875 -19.515625 27.046875 -17.484375 C 27.046875 -15.441406 26.550781 -13.679688 25.5625 -12.203125 C 24.582031 -10.734375 23.191406 -9.601562 21.390625 -8.8125 L 27.546875 0 Z M 20.609375 -17.484375 C 20.609375 -19.023438 20.113281 -20.207031 19.125 -21.03125 C 18.132812 -21.851562 16.6875 -22.265625 14.78125 -22.265625 L 9.59375 -22.265625 L 9.59375 -12.703125 L 14.78125 -12.703125 C 16.6875 -12.703125 18.132812 -13.117188 19.125 -13.953125 C 20.113281 -14.785156 20.609375 -15.960938 20.609375 -17.484375 Z M 20.609375 -17.484375 "/></g></g></g><g fill="#242424" fill-opacity="1"><g transform="translate(754.197477, 333.214422)"><g><path d="M 3.25 -27.4375 L 9.59375 -27.4375 L 9.59375 0 L 3.25 0 Z M 3.25 -27.4375 "/></g></g></g><g fill="#242424" fill-opacity="1"><g transform="translate(775.709439, 333.214422)"><g><path d="M 8.9375 -22.265625 L 0.15625 -22.265625 L 0.15625 -27.4375 L 24.0625 -27.4375 L 24.0625 -22.265625 L 15.28125 -22.265625 L 15.28125 0 L 8.9375 0 Z M 8.9375 -22.265625 "/></g></g></g><g fill="#242424" fill-opacity="1"><g transform="translate(808.584721, 333.214422)"><g><path d="M 16.421875 -9.71875 L 16.421875 0 L 10.078125 0 L 10.078125 -9.796875 L -0.546875 -27.4375 L 6.1875 -27.4375 L 13.515625 -15.25 L 20.84375 -27.4375 L 27.078125 -27.4375 Z M 16.421875 -9.71875 "/></g></g></g><g fill="#242424" fill-opacity="1"><g transform="translate(843.732757, 333.214422)"><g/></g></g><g fill="#242424" fill-opacity="1"><g transform="translate(863.481423, 333.214422)"><g><path d="M 12.265625 0.46875 C 10.097656 0.46875 8 0.175781 5.96875 -0.40625 C 3.945312 -1 2.320312 -1.765625 1.09375 -2.703125 L 3.25 -7.484375 C 4.425781 -6.617188 5.820312 -5.925781 7.4375 -5.40625 C 9.0625 -4.882812 10.6875 -4.625 12.3125 -4.625 C 14.113281 -4.625 15.441406 -4.890625 16.296875 -5.421875 C 17.160156 -5.960938 17.59375 -6.675781 17.59375 -7.5625 C 17.59375 -8.21875 17.335938 -8.757812 16.828125 -9.1875 C 16.316406 -9.625 15.660156 -9.972656 14.859375 -10.234375 C 14.066406 -10.492188 12.992188 -10.78125 11.640625 -11.09375 C 9.546875 -11.582031 7.832031 -12.078125 6.5 -12.578125 C 5.164062 -13.078125 4.019531 -13.875 3.0625 -14.96875 C 2.113281 -16.0625 1.640625 -17.523438 1.640625 -19.359375 C 1.640625 -20.953125 2.070312 -22.394531 2.9375 -23.6875 C 3.800781 -24.976562 5.097656 -26.003906 6.828125 -26.765625 C 8.566406 -27.523438 10.691406 -27.90625 13.203125 -27.90625 C 14.953125 -27.90625 16.660156 -27.691406 18.328125 -27.265625 C 20.003906 -26.847656 21.472656 -26.25 22.734375 -25.46875 L 20.765625 -20.65625 C 18.234375 -22.09375 15.703125 -22.8125 13.171875 -22.8125 C 11.390625 -22.8125 10.070312 -22.519531 9.21875 -21.9375 C 8.375 -21.363281 7.953125 -20.609375 7.953125 -19.671875 C 7.953125 -18.734375 8.441406 -18.035156 9.421875 -17.578125 C 10.398438 -17.117188 11.894531 -16.664062 13.90625 -16.21875 C 16 -15.726562 17.710938 -15.234375 19.046875 -14.734375 C 20.378906 -14.234375 21.519531 -13.445312 22.46875 -12.375 C 23.425781 -11.3125 23.90625 -9.863281 23.90625 -8.03125 C 23.90625 -6.46875 23.46875 -5.035156 22.59375 -3.734375 C 21.71875 -2.441406 20.40625 -1.414062 18.65625 -0.65625 C 16.90625 0.09375 14.773438 0.46875 12.265625 0.46875 Z M 12.265625 0.46875 "/></g></g></g><g fill="#242424" fill-opacity="1"><g transform="translate(897.140447, 333.214422)"><g><path d="M 24.484375 -5.09375 L 24.484375 0 L 3.25 0 L 3.25 -27.4375 L 23.984375 -27.4375 L 23.984375 -22.34375 L 9.5625 -22.34375 L 9.5625 -16.375 L 22.296875 -16.375 L 22.296875 -11.4375 L 9.5625 -11.4375 L 9.5625 -5.09375 Z M 24.484375 -5.09375 "/></g></g></g><g fill="#242424" fill-opacity="1"><g transform="translate(932.092572, 333.214422)"><g><path d="M 20.734375 0 L 15.4375 -7.640625 L 9.59375 -7.640625 L 9.59375 0 L 3.25 0 L 3.25 -27.4375 L 15.125 -27.4375 C 17.550781 -27.4375 19.660156 -27.03125 21.453125 -26.21875 C 23.242188 -25.40625 24.625 -24.253906 25.59375 -22.765625 C 26.5625 -21.273438 27.046875 -19.515625 27.046875 -17.484375 C 27.046875 -15.441406 26.550781 -13.679688 25.5625 -12.203125 C 24.582031 -10.734375 23.191406 -9.601562 21.390625 -8.8125 L 27.546875 0 Z M 20.609375 -17.484375 C 20.609375 -19.023438 20.113281 -20.207031 19.125 -21.03125 C 18.132812 -21.851562 16.6875 -22.265625 14.78125 -22.265625 L 9.59375 -22.265625 L 9.59375 -12.703125 L 14.78125 -12.703125 C 16.6875 -12.703125 18.132812 -13.117188 19.125 -13.953125 C 20.113281 -14.785156 20.609375 -15.960938 20.609375 -17.484375 Z M 20.609375 -17.484375 "/></g></g></g><g fill="#242424" fill-opacity="1"><g transform="translate(969.552473, 333.214422)"><g><path d="M 29.625 -27.4375 L 17.75 0 L 11.484375 0 L -0.359375 -27.4375 L 6.5 -27.4375 L 14.859375 -7.84375 L 23.3125 -27.4375 Z M 29.625 -27.4375 "/></g></g></g><g fill="#242424" fill-opacity="1"><g transform="translate(1007.443358, 333.214422)"><g><path d="M 3.25 -27.4375 L 9.59375 -27.4375 L 9.59375 0 L 3.25 0 Z M 3.25 -27.4375 "/></g></g></g><g fill="#242424" fill-opacity="1"><g transform="translate(1028.955321, 333.214422)"><g><path d="M 16.375 0.46875 C 13.582031 0.46875 11.054688 -0.132812 8.796875 -1.34375 C 6.535156 -2.5625 4.757812 -4.25 3.46875 -6.40625 C 2.175781 -8.5625 1.53125 -11 1.53125 -13.71875 C 1.53125 -16.4375 2.175781 -18.867188 3.46875 -21.015625 C 4.757812 -23.171875 6.535156 -24.859375 8.796875 -26.078125 C 11.054688 -27.296875 13.597656 -27.90625 16.421875 -27.90625 C 18.796875 -27.90625 20.941406 -27.484375 22.859375 -26.640625 C 24.785156 -25.804688 26.398438 -24.609375 27.703125 -23.046875 L 23.625 -19.28125 C 21.769531 -21.425781 19.472656 -22.5 16.734375 -22.5 C 15.035156 -22.5 13.519531 -22.125 12.1875 -21.375 C 10.851562 -20.632812 9.8125 -19.597656 9.0625 -18.265625 C 8.320312 -16.929688 7.953125 -15.414062 7.953125 -13.71875 C 7.953125 -12.019531 8.320312 -10.503906 9.0625 -9.171875 C 9.8125 -7.835938 10.851562 -6.796875 12.1875 -6.046875 C 13.519531 -5.304688 15.035156 -4.9375 16.734375 -4.9375 C 19.472656 -4.9375 21.769531 -6.019531 23.625 -8.1875 L 27.703125 -4.421875 C 26.398438 -2.828125 24.78125 -1.613281 22.84375 -0.78125 C 20.914062 0.0507812 18.757812 0.46875 16.375 0.46875 Z M 16.375 0.46875 "/></g></g></g><g fill="#242424" fill-opacity="1"><g transform="translate(1066.336848, 333.214422)"><g><path d="M 24.484375 -5.09375 L 24.484375 0 L 3.25 0 L 3.25 -27.4375 L 23.984375 -27.4375 L 23.984375 -22.34375 L 9.5625 -22.34375 L 9.5625 -16.375 L 22.296875 -16.375 L 22.296875 -11.4375 L 9.5625 -11.4375 L 9.5625 -5.09375 Z M 24.484375 -5.09375 "/></g></g></g></svg>